<?xml version="1.0" encoding="utf-8"?>
<!-- Generator: Adobe Illustrator 19.0.0, SVG Export Plug-In . SVG Version: 6.00 Build 0)  -->
<svg version="1.1" id="Layer_1" xmlns="http://www.w3.org/2000/svg" xmlns:xlink="http://www.w3.org/1999/xlink" x="0px" y="0px"
	 viewBox="325 -179.8460693 1610.4169922 918.8460693" style="enable-background:new 325 -179.8460693 1610.4169922 918.8460693;"
	 xml:space="preserve">
<style type="text/css">
	.st0{opacity:0.2;fill:url(#XMLID_3_);enable-background:new    ;}
	.st1{opacity:0.2;fill:url(#XMLID_4_);enable-background:new    ;}
	.st2{opacity:0.7;fill:url(#XMLID_5_);enable-background:new    ;}
	.st3{fill:url(#XMLID_6_);}
	.st4{fill:url(#XMLID_7_);}
</style>
<g id="XMLID_1_">
	
		<linearGradient id="XMLID_3_" gradientUnits="userSpaceOnUse" x1="861.1708374" y1="342.2563171" x2="3663.7890625" y2="342.2563171" gradientTransform="matrix(1 0 0 -1 0 558.3078613)">
		<stop  offset="0" style="stop-color:#F22E50"/>
		<stop  offset="1" style="stop-color:#E84227"/>
	</linearGradient>
	<path id="XMLID_80_" class="st0" d="M1935.4169922-179.8460693H325v530.0383911
		c70.3058472-11.2155151,144.7402954-16.6832275,222.779541-13.789978
		c380.6390381,14.1125488,446.3789673,225.8272095,876.7524414,268.5842285
		c191.4174805,19.0172119,366.4344482-3.2719727,510.8850098-38.4396973V-179.8460693z"/>
	
		<linearGradient id="XMLID_4_" gradientUnits="userSpaceOnUse" x1="536.0670776" y1="278.730896" x2="3338.6853027" y2="278.730896" gradientTransform="matrix(1 0 0 -1 0 558.3078613)">
		<stop  offset="0" style="stop-color:#F22E50"/>
		<stop  offset="1" style="stop-color:#E84227"/>
	</linearGradient>
	<path id="XMLID_82_" class="st1" d="M1935.4169922-179.8460693H325v882.1242065
		c137.3605957,29.9777222,299.1934204,47.1586914,474.3145142,29.760498
		c430.3734741-42.757019,494.2450562-254.4717407,874.8839722-268.5842896
		c92.4587402-3.4280396,179.8964844,4.8267212,261.2185059,20.543335V-179.8460693z"/>
	
		<linearGradient id="XMLID_5_" gradientUnits="userSpaceOnUse" x1="829.3415527" y1="315.8187866" x2="3141.6965332" y2="315.8187866" gradientTransform="matrix(1 0 0 -1 0 558.3078613)">
		<stop  offset="0" style="stop-color:#F22E50"/>
		<stop  offset="1" style="stop-color:#E84227"/>
	</linearGradient>
	<path id="XMLID_84_" class="st2" d="M1935.4169922-179.8460693H325v794.9752808
		c94.0158691,30.2179565,230.7026978,56.105835,417.2891846,48.2840576
		c59.9789429-2.5143433,75.8551636-6.4468384,393.6120605-57.2979126
		c273.0760498-43.7006226,409.6140137-65.5509033,443.4364014-69.7541504
		c94.6740723-11.7653809,213.5505371-18.5603027,356.0793457-8.4515991V-179.8460693z"/>
	
		<linearGradient id="XMLID_6_" gradientUnits="userSpaceOnUse" x1="892.355957" y1="305.2919312" x2="2525.3481445" y2="305.2919312" gradientTransform="matrix(1 0 0 -1 0 558.3078613)">
		<stop  offset="0" style="stop-color:#F22E50"/>
		<stop  offset="1" style="stop-color:#E84227"/>
	</linearGradient>
	<path id="XMLID_83_" class="st3" d="M1935.4169922-179.8460693H325v788.4405518
		c162.4620972,78.0487061,288.8197632,79.0704956,373.3034668,72.2573853
		c123.9344482-9.9946289,160.980896-51.0447388,367.0651855-104.6311035
		c111.2988281-28.9401245,233.6147461-61.5949097,360.4477539-62.2805176
		c98.1013184-0.5299683,283.631958,17.6490479,509.6005859,171.9376831V-179.8460693z"/>
	
		<linearGradient id="XMLID_7_" gradientUnits="userSpaceOnUse" x1="1517.168457" y1="305.0669556" x2="1976.3536377" y2="305.0669556" gradientTransform="matrix(1 0 0 -1 0 558.3078613)">
		<stop  offset="0" style="stop-color:#F22E50"/>
		<stop  offset="1" style="stop-color:#E84227"/>
	</linearGradient>
	<path id="XMLID_27_" class="st4" d="M1813.7769775,250.6134949c-1.1546631,17.5993652-9.7419434,31.671051-20.9552002,44.3927612
		c-12.7471924,14.4619141-29.1817627,22.9250183-47.4696045,28.3027039
		c-36.838501,10.8326416-73.5390625,22.1271362-110.3067627,33.1970825
		c-11.7598877,3.5405884-23.4615479,3.383667-35.2180176-0.1002197
		c-37.2954102-11.0521851-73.8659668-24.0970459-109.3311768-40.1029053
		c-34.3902588-15.5207825-67.7878418-32.8023987-97.4472656-56.5203552
		c-8.3171387-6.651001-15.8377686-14.1408386-22.9863281-21.9653625
		c-8.5201416-9.3256226-14.6782227-19.9350586-15.2294922-33.0286255c0-2.9894409,0-5.9789124,0-8.9683838
		c0.708374-12.3274536,7.3308105-20.8518677,17.3491211-27.3065491c5.0418701-3.2484131,10.2949219-6.1328125,15.8261719-8.3226318
		c14.6429443-5.7971497,29.7698975-9.9088135,45.5495605-10.9436646
		c10.5528564-0.6920471,58.4915771-1.1119995,64.7695313-1.8565063c4.1851807,0,22.7427979,0.5928955,27.8164063,0.6465149
		c44.6939697,0.4722595,88.4697266,7.9617615,132.0080566,17.1550293
		c40.8325195,8.6218872,81.0131836,19.6864929,120.4975586,33.2252808
		c10.317627,3.5377808,20.5529785,7.3115234,30.7711182,11.1329651c2.8223877,1.0555725,4.1221924,2.6879272,4.3687744,5.6134949
		C1814.1529541,219.4785156,1814.0334473,246.7053223,1813.7769775,250.6134949z"/>
</g>
</svg>
